<?xml version="1.0" encoding="UTF-8" standalone="no"?>
<svg
   width="250.00002"
   height="250.00002"
   viewBox="0 0 66.145837 66.14584"
   version="1.1"
   id="svg914"
   inkscape:version="1.2 (dc2aedaf03, 2022-05-15)"
   xml:space="preserve"
   sodipodi:docname="logo.svg"
   xmlns:inkscape="http://www.inkscape.org/namespaces/inkscape"
   xmlns:sodipodi="http://sodipodi.sourceforge.net/DTD/sodipodi-0.dtd"
   xmlns:xlink="http://www.w3.org/1999/xlink"
   xmlns="http://www.w3.org/2000/svg"
   xmlns:svg="http://www.w3.org/2000/svg"
   xmlns:rdf="http://www.w3.org/1999/02/22-rdf-syntax-ns#"
   xmlns:cc="http://creativecommons.org/ns#"
   xmlns:dc="http://purl.org/dc/elements/1.1/"><defs
     id="defs908"><linearGradient
       inkscape:collect="always"
       id="linearGradient1810"><stop
         style="stop-color:#2878a3;stop-opacity:1;"
         offset="0"
         id="stop1806" /><stop
         style="stop-color:#8a1a86;stop-opacity:1;"
         offset="1"
         id="stop1808" /></linearGradient><linearGradient
       inkscape:collect="always"
       xlink:href="#linearGradient1810"
       id="linearGradient1812"
       x1="99.639458"
       y1="153.38972"
       x2="137.72055"
       y2="103.40237"
       gradientUnits="userSpaceOnUse" /></defs><sodipodi:namedview
     id="base"
     pagecolor="#ffffff"
     bordercolor="#666666"
     borderopacity="1.0"
     inkscape:pageopacity="0.0"
     inkscape:pageshadow="2"
     inkscape:zoom="3.959798"
     inkscape:cx="-32.198612"
     inkscape:cy="126.26907"
     inkscape:document-units="mm"
     inkscape:current-layer="layer1"
     inkscape:document-rotation="0"
     showgrid="false"
     units="px"
     inkscape:showpageshadow="false"
     inkscape:pagecheckerboard="0"
     inkscape:deskcolor="#d1d1d1"
     inkscape:window-width="3840"
     inkscape:window-height="2066"
     inkscape:window-x="2869"
     inkscape:window-y="-11"
     inkscape:window-maximized="1" /><metadata
     id="metadata911"><rdf:RDF><cc:Work
         rdf:about=""><dc:format>image/svg+xml</dc:format><dc:type
           rdf:resource="http://purl.org/dc/dcmitype/StillImage" /></cc:Work></rdf:RDF></metadata><g
     inkscape:label="Layer 1"
     inkscape:groupmode="layer"
     id="layer1"
     transform="translate(-85.465347,-95.464874)"><path
       id="path855"
       style="fill:url(#linearGradient1812);fill-opacity:1;stroke-width:0.322009"
       d="m 141.04438,142.12663 c -0.0145,-0.0885 -1.03347,-1.23486 -2.04336,-2.33888 -0.84844,-0.92752 -2.17793,-2.16207 -3.14082,-3.22358 -0.14705,-0.16212 -1.01696,-1.22112 -1.20974,-1.09554 l -5.2002,3.38739 3.20859,-4.41575 2.1487,-2.92747 2.14871,-2.92695 -2.36678,-9.67538 -2.36626,-9.67486 -6.11798,-4.88084 c -3.36499,-2.68462 -6.3994,-5.1378 -6.74274,-5.451346 -0.34333,-0.313547 -0.7052,-0.569124 -0.8046,-0.567924 -0.14684,0.0019 -12.67076,9.97963 -13.22245,10.53424 0.64195,1.80832 1.05293,2.98922 0.89039,4.70721 -0.22335,2.36079 -0.8378,5.58082 -1.55753,11.87775 1.14989,2.36625 3.25163,6.86331 3.7867,8.0125 2.24377,4.61283 3.88977,7.87556 3.82937,7.93596 -0.0604,0.0604 -1.01838,-1.455 -2.12907,-3.36724 -1.11069,-1.91224 -3.15089,-5.38625 -4.53357,-7.72046 l -2.17997,-4.77873 0.12945,-4.72043 c 0.25492,-2.8904 0.53467,-5.90752 0.62167,-6.7045 0.23512,-2.15411 -0.15224,-0.89105 -2.24586,7.31996 l -1.82521,7.15874 4.29741,5.82032 c 2.36363,3.20095 4.72653,6.42732 5.25136,7.1701 l 0.95446,1.35082 -1.81074,-1.61023 c -0.99601,-0.88553 -2.76269,-2.4583 -3.92586,-3.49488 l -2.11512,-1.88464 -3.358964,3.0117 c -1.847498,1.65646 -3.369522,3.08434 -3.382222,3.17294 -0.01265,0.0885 6.466256,5.1217 11.813236,9.10177 4.92404,3.66525 8.88258,7.49298 9.05009,7.51168 m -5.7056,-38.28552 7.14949,-4.20944 8.28523,4.47661 3.27422,5.47925 -7.08277,14.6327 -4.00906,1.6707 -4.14238,-1.06919 -7.34994,-16.10289 z m 21.04265,4.44418 c 0.17784,-0.0213 0.42787,0.12511 0.85679,0.4625 l 0.86248,0.678 -3.06854,5.22603 c -1.68767,2.87429 -3.72716,6.34893 -4.53254,7.7215 -0.80538,1.37256 -1.53156,2.49597 -1.61386,2.49597 -0.0823,0 -0.0731,-0.18118 0.0207,-0.40256 0.77208,-1.82201 7.00803,-15.63258 7.2099,-15.9675 0.0774,-0.12838 0.1584,-0.20118 0.2651,-0.21394 z"
       sodipodi:nodetypes="cssccccccccccccccsssccccccsccccccsccccccccccccccsscscc" /></g></svg>
