<?xml version="1.0" encoding="UTF-8" standalone="no"?>
<svg
   width="250.00002"
   height="250.00002"
   viewBox="0 0 66.145837 66.14584"
   version="1.1"
   id="svg914"
   inkscape:version="1.2 (dc2aedaf03, 2022-05-15)"
   xml:space="preserve"
   sodipodi:docname="logo.svg"
   xmlns:inkscape="http://www.inkscape.org/namespaces/inkscape"
   xmlns:sodipodi="http://sodipodi.sourceforge.net/DTD/sodipodi-0.dtd"
   xmlns:xlink="http://www.w3.org/1999/xlink"
   xmlns="http://www.w3.org/2000/svg"
   xmlns:svg="http://www.w3.org/2000/svg"
   xmlns:rdf="http://www.w3.org/1999/02/22-rdf-syntax-ns#"
   xmlns:cc="http://creativecommons.org/ns#"
   xmlns:dc="http://purl.org/dc/elements/1.1/"><defs
     id="defs908"><linearGradient
       inkscape:collect="always"
       id="linearGradient1810"><stop
         style="stop-color:#2878a3;stop-opacity:1;"
         offset="0"
         id="stop1806" /><stop
         style="stop-color:#8a1a86;stop-opacity:1;"
         offset="1"
         id="stop1808" /></linearGradient><linearGradient
       inkscape:collect="always"
       xlink:href="#linearGradient1810"
       id="linearGradient1812"
       x1="99.639458"
       y1="153.38972"
       x2="137.72055"
       y2="103.40237"
       gradientUnits="userSpaceOnUse" /></defs><sodipodi:namedview
     id="base"
     pagecolor="#ffffff"
     bordercolor="#666666"
     borderopacity="1.0"
     inkscape:pageopacity="0.0"
     inkscape:pageshadow="2"
     inkscape:zoom="3.959798"
     inkscape:cx="266.80654"
     inkscape:cy="224.25386"
     inkscape:document-units="mm"
     inkscape:current-layer="layer1"
     inkscape:document-rotation="0"
     showgrid="false"
     units="px"
     inkscape:showpageshadow="false"
     inkscape:pagecheckerboard="0"
     inkscape:deskcolor="#d1d1d1"
     inkscape:window-width="3840"
     inkscape:window-height="2066"
     inkscape:window-x="2869"
     inkscape:window-y="-11"
     inkscape:window-maximized="1" /><metadata
     id="metadata911"><rdf:RDF><cc:Work
         rdf:about=""><dc:format>image/svg+xml</dc:format><dc:type
           rdf:resource="http://purl.org/dc/dcmitype/StillImage" /></cc:Work></rdf:RDF></metadata><g
     inkscape:label="Layer 1"
     inkscape:groupmode="layer"
     id="layer1"
     transform="translate(-85.465347,-95.464874)"><path
       id="path855"
       style="fill:url(#linearGradient1812);fill-opacity:1;stroke-width:0.322009"
       d="m 141.04438,142.12663 c -0.0145,-0.0885 -1.03347,-1.23486 -2.04336,-2.33888 -0.84844,-0.92752 -2.17793,-2.16207 -3.14082,-3.22358 -0.14705,-0.16212 -1.01696,-1.22112 -1.20974,-1.09554 l -5.2002,3.38739 3.20859,-4.41575 2.1487,-2.92747 2.14871,-2.92695 -2.36678,-9.67538 -2.36626,-9.67486 -6.11798,-4.88084 c -3.36499,-2.68462 -6.3994,-5.1378 -6.74274,-5.451346 -0.34333,-0.313547 -0.7052,-0.569124 -0.8046,-0.567924 -0.14684,0.0019 -12.67076,9.97963 -13.22245,10.53424 0.64195,1.80832 1.05293,2.98922 0.89039,4.70721 -0.22335,2.36079 -0.90462,8.28692 -0.82254,14.96805 2.1855,4.29018 4.02896,7.74893 6.88108,12.85816 -3.07703,-4.44918 -6.29176,-9.16858 -8.89272,-13.4276 l 0.38001,-7.05903 c 0.25492,-2.8904 0.36763,-7.37751 0.45463,-8.17449 0.23512,-2.15411 -0.18565,0.47871 -2.27927,8.68972 l -1.82521,7.15874 4.29741,5.82032 c 2.36363,3.20095 4.72653,6.42732 5.25136,7.1701 l 0.95446,1.35082 -1.81074,-1.61023 c -0.99601,-0.88553 -2.76269,-2.4583 -3.92586,-3.49488 l -2.11512,-1.88464 -3.358964,3.0117 c -1.847498,1.65646 -3.369522,3.08434 -3.382222,3.17294 -0.01265,0.0885 6.466256,5.1217 11.813236,9.10177 4.92404,3.66525 10.41938,7.5598 10.58689,7.5785 m -7.2424,-38.35234 7.14949,-4.20944 8.28523,4.47661 3.69875,5.41411 -0.0608,2.34661 -11.78961,16.49391 0.33407,-2.47198 -12.19387,-14.03176 -0.0669,-2.33851 z m 21.04265,4.44418 c 0.17784,-0.0213 0.42787,0.12511 0.85679,0.4625 l 0.86248,0.678 -3.06854,5.22603 c -1.68767,2.87429 -3.72716,6.34893 -4.53254,7.7215 -0.80538,1.37256 -1.53156,2.49597 -1.61386,2.49597 -0.0823,0 -0.0731,-0.18118 0.0207,-0.40256 0.77208,-1.82201 8.4446,-15.73281 8.64647,-16.06773 0.0774,-0.12838 -1.27817,-0.10095 -1.17147,-0.11371 z"
       sodipodi:nodetypes="cssccccccccccccccccccccsccccccscccccccccccccccsscscc" /><path
       id="path855-7"
       style="fill:#000000;fill-opacity:0.44180524;stroke-width:0.322009"
       d="m 118.40624,98.311155 v 18.047995 l 7.95093,4.29586 3.699,5.41414 -0.061,2.34663 -11.58895,16.21296 v 13.93352 l 22.37072,-16.50235 c -0.0145,-0.0885 -1.03339,-1.23486 -2.04328,-2.33888 -0.84844,-0.92752 -2.17801,-2.16207 -3.1409,-3.22358 -0.14705,-0.16212 -1.01696,-1.22112 -1.20974,-1.09554 l -5.2002,3.38739 3.20859,-4.41575 2.14871,-2.92747 2.1487,-2.92695 -2.36678,-9.67538 -2.36626,-9.67486 -6.11798,-4.88084 c -3.36498,-2.68462 -6.3994,-5.1378 -6.74274,-5.451346 -0.25967,-0.237145 -0.52954,-0.440739 -0.68884,-0.525549 z m 13.55886,26.520865 c 0.0265,-0.003 0.0552,-0.001 0.0853,0.003 0.21583,0.005 1.1526,5.3e-4 1.08624,0.11058 -0.009,0.0145 -0.19431,0.35205 -0.22996,0.41548 l 0.77773,0.61134 -3.06854,5.22603 c -1.68767,2.87429 -3.72716,6.34893 -4.53254,7.7215 -0.80538,1.37255 -1.53156,2.49597 -1.61386,2.49597 -0.0823,0 -0.0731,-0.18118 0.0207,-0.40256 0.73862,-1.74304 7.6297,-14.25214 8.41654,-15.65228 l -0.0848,-0.0667 c -0.36505,-0.28715 -0.59985,-0.43459 -0.77153,-0.4594 -0.0359,-7.6e-4 -0.10049,-0.001 -0.0853,-0.003 z m -13.55886,17.45216 v 1.1405 l 0.13332,-0.98702 z" /><g
       id="g849"
       transform="matrix(0.02222146,0,0,0.02222146,97.080177,104.41595)"
       style="opacity:1"><polygon
         fill="#8a92b2"
         points="959.8,731 959.8,80.7 420.1,976.3 "
         id="polygon837" /><polygon
         fill="#62688f"
         points="959.8,1295.4 959.8,731 420.1,976.3 "
         id="polygon839" /><polygon
         fill="#62688f"
         points="959.8,731 1499.6,976.3 959.8,80.7 "
         id="polygon841" /><polygon
         fill="#454a75"
         points="959.8,731 959.8,1295.4 1499.6,976.3 "
         id="polygon843" /><polygon
         fill="#8a92b2"
         points="959.8,1397.6 420.1,1078.7 959.8,1839.3 "
         id="polygon845" /><polygon
         fill="#62688f"
         points="1499.9,1078.7 959.8,1397.6 959.8,1839.3 "
         id="polygon847" /></g></g></svg>
