<?xml version="1.0" encoding="UTF-8" standalone="no"?>
<svg
   width="1117.1429"
   height="1117.1429"
   viewBox="0 0 295.57741 295.57742"
   version="1.1"
   id="svg914"
   inkscape:version="1.2 (dc2aedaf03, 2022-05-15)"
   sodipodi:docname="menu.svg"
   xmlns:inkscape="http://www.inkscape.org/namespaces/inkscape"
   xmlns:sodipodi="http://sodipodi.sourceforge.net/DTD/sodipodi-0.dtd"
   xmlns:xlink="http://www.w3.org/1999/xlink"
   xmlns="http://www.w3.org/2000/svg"
   xmlns:svg="http://www.w3.org/2000/svg"
   xmlns:rdf="http://www.w3.org/1999/02/22-rdf-syntax-ns#"
   xmlns:cc="http://creativecommons.org/ns#"
   xmlns:dc="http://purl.org/dc/elements/1.1/">
  <defs
     id="defs908">
    <linearGradient
       inkscape:collect="always"
       id="linearGradient1024">
      <stop
         style="stop-color:#3ebbff;stop-opacity:1;"
         offset="0"
         id="stop1020" />
      <stop
         style="stop-color:#b923b3;stop-opacity:1;"
         offset="1"
         id="stop1022" />
    </linearGradient>
    <linearGradient
       inkscape:collect="always"
       xlink:href="#linearGradient1024"
       id="linearGradient1026"
       x1="203.04881"
       y1="316.36603"
       x2="264.28088"
       y2="17.764847"
       gradientUnits="userSpaceOnUse" />
  </defs>
  <sodipodi:namedview
     id="base"
     pagecolor="#ffffff"
     bordercolor="#666666"
     borderopacity="1.0"
     inkscape:pageopacity="0.0"
     inkscape:pageshadow="2"
     inkscape:zoom="0.35"
     inkscape:cx="-167.14286"
     inkscape:cy="548.57143"
     inkscape:document-units="mm"
     inkscape:current-layer="layer1"
     inkscape:document-rotation="0"
     showgrid="false"
     units="px"
     inkscape:showpageshadow="false"
     inkscape:pagecheckerboard="0"
     inkscape:deskcolor="#d1d1d1"
     inkscape:window-width="3840"
     inkscape:window-height="2066"
     inkscape:window-x="2869"
     inkscape:window-y="-11"
     inkscape:window-maximized="1" />
  <metadata
     id="metadata911">
    <rdf:RDF>
      <cc:Work
         rdf:about="">
        <dc:format>image/svg+xml</dc:format>
        <dc:type
           rdf:resource="http://purl.org/dc/dcmitype/StillImage" />
      </cc:Work>
    </rdf:RDF>
  </metadata>
  <g
     inkscape:label="Layer 1"
     inkscape:groupmode="layer"
     id="layer1"
     transform="translate(-80.886902,-12.851185)">
    <path
       id="path232-0"
       style="fill:url(#linearGradient1026);fill-rule:evenodd;stroke-width:1;stroke-linecap:square;paint-order:markers stroke fill;fill-opacity:1"
       d="M 230.26331 12.851185 A 39.309525 39.309525 0 0 0 190.95357 52.16093 A 39.309525 39.309525 0 0 0 230.26331 91.470159 A 39.309525 39.309525 0 0 0 269.57254 52.16093 A 39.309525 39.309525 0 0 0 230.26331 12.851185 z M 230.26331 123.97618 A 39.309525 39.309525 0 0 0 190.95357 163.28593 A 39.309525 39.309525 0 0 0 230.26331 202.59516 A 39.309525 39.309525 0 0 0 269.57254 163.28593 A 39.309525 39.309525 0 0 0 230.26331 123.97618 z M 230.26331 229.80952 A 39.309525 39.309525 0 0 0 190.95357 269.11926 A 39.309525 39.309525 0 0 0 230.26331 308.42849 A 39.309525 39.309525 0 0 0 269.57254 269.11926 A 39.309525 39.309525 0 0 0 230.26331 229.80952 z " />
  </g>
</svg>
